<svg xmlns="http://www.w3.org/2000/svg" xmlns:xlink="http://www.w3.org/1999/xlink" width="180" zoomAndPan="magnify" viewBox="0 0 135 135.000003" height="180" preserveAspectRatio="xMidYMid meet" version="1.0"><defs><clipPath id="bc16fcd088"><path d="M 60.507812 60.011719 L 107.691406 60.011719 L 107.691406 107.195312 L 60.507812 107.195312 Z M 60.507812 60.011719 " clip-rule="nonzero"/></clipPath><clipPath id="890654ce8a"><path d="M 27.296875 26.800781 L 70 26.800781 L 70 69 L 27.296875 69 Z M 27.296875 26.800781 " clip-rule="nonzero"/></clipPath><clipPath id="084599874b"><path d="M 63.339844 26.910156 L 107.691406 26.910156 L 107.691406 66 L 63.339844 66 Z M 63.339844 26.910156 " clip-rule="nonzero"/></clipPath><clipPath id="740689e06e"><path d="M 27.40625 62.84375 L 66.605469 62.84375 L 66.605469 107.195312 L 27.40625 107.195312 Z M 27.40625 62.84375 " clip-rule="nonzero"/></clipPath></defs><g clip-path="url(#bc16fcd088)"><path fill="#5b8400" d="M 96.453125 107.195312 C 93.453125 107.195312 90.632812 106.023438 88.507812 103.902344 L 61.820312 77.214844 C 61.617188 77.011719 61.492188 76.746094 61.460938 76.464844 L 60.734375 69.886719 C 60.691406 69.507812 60.824219 69.128906 61.09375 68.863281 L 69.359375 60.597656 C 69.628906 60.328125 70.003906 60.195312 70.382812 60.238281 L 76.960938 60.964844 C 77.246094 60.996094 77.507812 61.121094 77.710938 61.324219 L 104.398438 88.011719 C 106.519531 90.132812 107.691406 92.957031 107.691406 95.957031 C 107.691406 98.960938 106.519531 101.78125 104.398438 103.902344 C 102.277344 106.023438 99.457031 107.195312 96.453125 107.195312 Z M 63.90625 75.75 L 90.28125 102.128906 C 93.683594 105.53125 99.222656 105.53125 102.625 102.128906 C 106.027344 98.726562 106.027344 93.1875 102.625 89.785156 L 76.25 63.410156 L 70.707031 62.796875 L 63.292969 70.210938 L 63.90625 75.75 " fill-opacity="1" fill-rule="evenodd"/></g><path fill="#5b8400" d="M 94.703125 100.023438 C 94.382812 100.023438 94.058594 99.902344 93.816406 99.65625 L 69.472656 75.3125 C 68.980469 74.824219 68.980469 74.03125 69.472656 73.539062 C 69.960938 73.050781 70.753906 73.050781 71.246094 73.539062 L 95.589844 97.882812 C 96.078125 98.375 96.078125 99.167969 95.589844 99.65625 C 95.34375 99.902344 95.023438 100.023438 94.703125 100.023438 " fill-opacity="1" fill-rule="evenodd"/><path fill="#5b8400" d="M 99.265625 95.460938 C 98.945312 95.460938 98.625 95.335938 98.378906 95.09375 L 74.035156 70.75 C 73.546875 70.257812 73.546875 69.464844 74.035156 68.972656 C 74.527344 68.484375 75.320312 68.484375 75.808594 68.972656 L 100.152344 93.316406 C 100.644531 93.808594 100.644531 94.601562 100.152344 95.09375 C 99.910156 95.335938 99.589844 95.460938 99.265625 95.460938 " fill-opacity="1" fill-rule="evenodd"/><g clip-path="url(#890654ce8a)"><path fill="#5b8400" d="M 64.320312 68.660156 C 64 68.660156 63.679688 68.539062 63.433594 68.292969 L 34.953125 39.8125 L 30.59375 37.957031 C 30.335938 37.847656 30.121094 37.652344 29.988281 37.410156 L 27.566406 33.035156 C 27.292969 32.546875 27.378906 31.9375 27.773438 31.542969 L 32.039062 27.277344 C 32.433594 26.882812 33.042969 26.796875 33.53125 27.070312 L 37.90625 29.492188 C 38.148438 29.625 38.34375 29.839844 38.453125 30.097656 L 40.308594 34.457031 L 68.789062 62.9375 C 69.28125 63.429688 69.28125 64.222656 68.789062 64.710938 L 65.210938 68.292969 C 64.964844 68.539062 64.644531 68.660156 64.320312 68.660156 Z M 31.972656 35.816406 L 36.160156 37.597656 C 36.304688 37.660156 36.441406 37.75 36.554688 37.867188 L 64.320312 65.632812 L 66.128906 63.824219 L 38.363281 36.058594 C 38.25 35.945312 38.15625 35.808594 38.09375 35.664062 L 36.3125 31.476562 L 33.144531 29.722656 L 30.21875 32.648438 L 31.972656 35.816406 " fill-opacity="1" fill-rule="evenodd"/></g><g clip-path="url(#084599874b)"><path fill="#5b8400" d="M 79.261719 65.902344 C 78.941406 65.902344 78.621094 65.78125 78.375 65.535156 C 77.886719 65.046875 77.886719 64.253906 78.375 63.761719 L 84.878906 57.261719 C 85.222656 56.917969 85.730469 56.800781 86.1875 56.964844 C 91.335938 58.8125 97.160156 57.511719 101.023438 53.644531 C 104.402344 50.265625 105.824219 45.394531 104.898438 40.785156 L 96.53125 49.152344 C 96.042969 49.640625 95.25 49.640625 94.757812 49.152344 L 85.449219 39.84375 C 85.214844 39.605469 85.082031 39.289062 85.082031 38.957031 C 85.082031 38.621094 85.214844 38.304688 85.449219 38.066406 L 93.8125 29.703125 C 89.207031 28.777344 84.335938 30.199219 80.957031 33.578125 C 77.09375 37.441406 75.789062 43.265625 77.636719 48.414062 C 77.800781 48.871094 77.683594 49.378906 77.339844 49.722656 L 65.574219 61.492188 C 65.082031 61.984375 64.289062 61.984375 63.796875 61.492188 C 63.308594 61.003906 63.308594 60.210938 63.796875 59.71875 L 75.019531 48.496094 C 74.1875 45.777344 74.066406 42.890625 74.664062 40.09375 C 75.339844 36.953125 76.902344 34.085938 79.183594 31.804688 C 81.464844 29.519531 84.332031 27.957031 87.476562 27.285156 C 90.535156 26.628906 93.703125 26.839844 96.640625 27.894531 C 97.046875 28.039062 97.347656 28.378906 97.441406 28.800781 C 97.535156 29.21875 97.410156 29.65625 97.105469 29.960938 L 88.109375 38.957031 L 95.648438 46.492188 L 104.640625 37.496094 C 104.945312 37.191406 105.382812 37.066406 105.800781 37.160156 C 106.222656 37.253906 106.5625 37.554688 106.707031 37.960938 C 107.761719 40.898438 107.972656 44.066406 107.316406 47.125 C 106.644531 50.269531 105.082031 53.136719 102.800781 55.417969 C 100.519531 57.699219 97.648438 59.261719 94.507812 59.9375 C 91.710938 60.535156 88.824219 60.410156 86.105469 59.582031 L 80.148438 65.535156 C 79.90625 65.78125 79.582031 65.902344 79.261719 65.902344 " fill-opacity="1" fill-rule="evenodd"/></g><g clip-path="url(#740689e06e)"><path fill="#5b8400" d="M 44.101562 107.195312 C 42.1875 107.195312 40.277344 106.867188 38.457031 106.210938 C 38.050781 106.066406 37.75 105.726562 37.65625 105.304688 C 37.5625 104.886719 37.6875 104.449219 37.992188 104.144531 L 46.988281 95.148438 L 39.453125 87.613281 L 30.457031 96.609375 C 30.152344 96.914062 29.714844 97.039062 29.296875 96.945312 C 28.875 96.851562 28.535156 96.550781 28.390625 96.144531 C 27.335938 93.207031 27.125 90.039062 27.78125 86.980469 C 28.453125 83.835938 30.015625 80.96875 32.300781 78.6875 C 34.582031 76.40625 37.449219 74.84375 40.589844 74.167969 C 43.386719 73.570312 46.273438 73.691406 48.992188 74.523438 L 60.214844 63.300781 C 60.707031 62.8125 61.5 62.8125 61.992188 63.300781 C 62.480469 63.792969 62.480469 64.585938 61.992188 65.074219 L 50.222656 76.84375 C 49.878906 77.1875 49.367188 77.304688 48.910156 77.140625 C 43.761719 75.289062 37.9375 76.59375 34.074219 80.460938 C 30.695312 83.835938 29.273438 88.707031 30.199219 93.316406 L 38.566406 84.953125 C 38.800781 84.71875 39.121094 84.585938 39.453125 84.585938 C 39.785156 84.585938 40.101562 84.71875 40.339844 84.953125 L 49.648438 94.261719 C 50.136719 94.753906 50.136719 95.546875 49.648438 96.035156 L 41.285156 104.402344 C 45.894531 105.328125 50.765625 103.90625 54.140625 100.527344 C 58.007812 96.664062 59.3125 90.839844 57.460938 85.691406 C 57.296875 85.234375 57.414062 84.722656 57.757812 84.382812 L 64.257812 77.878906 C 64.75 77.390625 65.542969 77.390625 66.03125 77.878906 C 66.523438 78.371094 66.523438 79.164062 66.03125 79.652344 L 60.078125 85.609375 C 60.910156 88.328125 61.035156 91.214844 60.433594 94.011719 C 59.757812 97.152344 58.195312 100.019531 55.914062 102.304688 C 53.632812 104.585938 50.765625 106.148438 47.625 106.820312 C 46.460938 107.070312 45.28125 107.195312 44.101562 107.195312 " fill-opacity="1" fill-rule="evenodd"/></g></svg>