<svg xmlns="http://www.w3.org/2000/svg" xmlns:xlink="http://www.w3.org/1999/xlink" width="180" zoomAndPan="magnify" viewBox="0 0 135 135.000003" height="180" preserveAspectRatio="xMidYMid meet" version="1.0"><defs><clipPath id="51d99d7cfa"><path d="M 31.617188 23.835938 L 103.089844 23.835938 L 103.089844 110.199219 L 31.617188 110.199219 Z M 31.617188 23.835938 " clip-rule="nonzero"/></clipPath></defs><path fill="#5b8400" d="M 83.875 31.140625 L 81.359375 31.140625 L 81.359375 29.039062 L 83.875 29.039062 L 83.875 31.140625 " fill-opacity="1" fill-rule="nonzero"/><path fill="#5b8400" d="M 89.046875 31.140625 L 86.53125 31.140625 L 86.53125 29.039062 L 89.046875 29.039062 L 89.046875 31.140625 " fill-opacity="1" fill-rule="nonzero"/><path fill="#5b8400" d="M 83.875 35.316406 L 81.359375 35.316406 L 81.359375 33.210938 L 83.875 33.210938 L 83.875 35.316406 " fill-opacity="1" fill-rule="nonzero"/><path fill="#5b8400" d="M 89.046875 35.316406 L 86.53125 35.316406 L 86.53125 33.210938 L 89.046875 33.210938 L 89.046875 35.316406 " fill-opacity="1" fill-rule="nonzero"/><path fill="#5b8400" d="M 94.21875 31.140625 L 91.703125 31.140625 L 91.703125 29.039062 L 94.21875 29.039062 L 94.21875 31.140625 " fill-opacity="1" fill-rule="nonzero"/><path fill="#5b8400" d="M 94.21875 35.316406 L 91.703125 35.316406 L 91.703125 33.210938 L 94.21875 33.210938 L 94.21875 35.316406 " fill-opacity="1" fill-rule="nonzero"/><g clip-path="url(#51d99d7cfa)"><path fill="#5b8400" d="M 36.265625 25.9375 C 34.890625 25.9375 33.769531 27.0625 33.769531 28.4375 L 33.769531 105.5625 C 33.769531 106.941406 34.890625 108.0625 36.265625 108.0625 L 98.816406 108.0625 C 100.195312 108.0625 101.3125 106.941406 101.3125 105.5625 L 101.3125 28.4375 C 101.3125 27.0625 100.195312 25.9375 98.816406 25.9375 Z M 98.816406 110.164062 L 36.265625 110.164062 C 33.730469 110.164062 31.667969 108.097656 31.667969 105.5625 L 31.667969 28.4375 C 31.667969 25.902344 33.730469 23.835938 36.265625 23.835938 L 98.816406 23.835938 C 101.355469 23.835938 103.417969 25.902344 103.417969 28.4375 L 103.417969 105.5625 C 103.417969 108.097656 101.355469 110.164062 98.816406 110.164062 " fill-opacity="1" fill-rule="nonzero"/></g><path fill="#5b8400" d="M 102.367188 40.515625 L 32.71875 40.515625 L 32.71875 38.414062 L 102.367188 38.414062 L 102.367188 40.515625 " fill-opacity="1" fill-rule="nonzero"/><path fill="#5b8400" d="M 67.542969 49.703125 C 53.984375 49.703125 42.953125 60.730469 42.953125 74.289062 C 42.953125 87.847656 53.984375 98.875 67.542969 98.875 C 81.101562 98.875 92.132812 87.847656 92.132812 74.289062 C 92.132812 60.730469 81.101562 49.703125 67.542969 49.703125 Z M 67.542969 100.976562 C 52.828125 100.976562 40.851562 89.007812 40.851562 74.289062 C 40.851562 59.570312 52.828125 47.601562 67.542969 47.601562 C 82.257812 47.601562 94.230469 59.570312 94.230469 74.289062 C 94.230469 89.007812 82.257812 100.976562 67.542969 100.976562 " fill-opacity="1" fill-rule="nonzero"/><path fill="#5b8400" d="M 67.542969 56.613281 C 57.796875 56.613281 49.867188 64.542969 49.867188 74.289062 C 49.867188 84.03125 57.796875 91.964844 67.542969 91.964844 C 77.289062 91.964844 85.214844 84.03125 85.214844 74.289062 C 85.214844 64.542969 77.289062 56.613281 67.542969 56.613281 Z M 67.542969 94.066406 C 56.636719 94.066406 47.765625 85.191406 47.765625 74.289062 C 47.765625 63.382812 56.636719 54.511719 67.542969 54.511719 C 78.449219 54.511719 87.320312 63.382812 87.320312 74.289062 C 87.320312 85.191406 78.449219 94.066406 67.542969 94.066406 " fill-opacity="1" fill-rule="nonzero"/><path fill="#5b8400" d="M 81.359375 75.339844 C 80.78125 75.339844 80.308594 74.867188 80.308594 74.289062 C 80.308594 67.246094 74.582031 61.519531 67.542969 61.519531 C 66.960938 61.519531 66.488281 61.046875 66.488281 60.46875 C 66.488281 59.886719 66.960938 59.417969 67.542969 59.417969 C 75.742188 59.417969 82.414062 66.089844 82.414062 74.289062 C 82.414062 74.867188 81.941406 75.339844 81.359375 75.339844 " fill-opacity="1" fill-rule="nonzero"/><path fill="#5b8400" d="M 58.125 35.4375 L 43.425781 35.4375 C 41.984375 35.4375 40.8125 34.265625 40.8125 32.824219 L 40.8125 29.964844 L 42.914062 29.964844 L 42.914062 32.824219 C 42.914062 33.105469 43.140625 33.335938 43.425781 33.335938 L 58.125 33.335938 C 58.40625 33.335938 58.636719 33.105469 58.636719 32.824219 L 58.636719 29.964844 L 60.738281 29.964844 L 60.738281 32.824219 C 60.738281 34.265625 59.566406 35.4375 58.125 35.4375 " fill-opacity="1" fill-rule="nonzero"/></svg>